HIERARCHY
ROOT Hips
{
    OFFSET 0.000000 0.000000 0.000000
    CHANNELS 6 Xposition Yposition Zposition Zrotation Xrotation Yrotation
    JOINT Spine
    {
        OFFSET -0.000000 14.517291 0.000000
        CHANNELS 3 Zrotation Xrotation Yrotation
        JOINT Spine1
        {
            OFFSET -0.000000 37.558300 0.000000
            CHANNELS 3 Zrotation Xrotation Yrotation
            JOINT Neck
            {
                OFFSET -0.000000 37.404057 3.400369
                CHANNELS 3 Zrotation Xrotation Yrotation
                JOINT Head
                {
                    OFFSET -0.000000 24.785618 -3.540803
                    CHANNELS 3 Zrotation Xrotation Yrotation
                    End Site
                    {
                        OFFSET -0.000000 35.408028 0.000000
                    }
                }
            }
            JOINT LeftShoulder
            {
                OFFSET 6.992933 33.973492 -0.192664
                CHANNELS 3 Zrotation Xrotation Yrotation
                JOINT LeftArm
                {
                    OFFSET 21.527611 0.000000 0.000000
                    CHANNELS 3 Zrotation Xrotation Yrotation
                    JOINT LeftForeArm
                    {
                        OFFSET 56.353916 0.000000 0.000000
                        CHANNELS 3 Zrotation Xrotation Yrotation
                        JOINT LeftHand
                        {
                            OFFSET 47.774071 0.000000 0.000000
                            CHANNELS 3 Zrotation Xrotation Yrotation
                            End Site
                            {
                                OFFSET 26.556021 0.000000 0.000000
                            }
                        }
                    }
                }
            }
            JOINT RightShoulder
            {
                OFFSET -7.065357 33.973492 -0.192664
                CHANNELS 3 Zrotation Xrotation Yrotation
                JOINT RightArm
                {
                    OFFSET -21.527611 0.000000 0.000000
                    CHANNELS 3 Zrotation Xrotation Yrotation
                    JOINT RightForeArm
                    {
                        OFFSET -56.353916 0.000000 0.000000
                        CHANNELS 3 Zrotation Xrotation Yrotation
                        JOINT RightHand
                        {
                            OFFSET -47.774071 0.000000 0.000000
                            CHANNELS 3 Zrotation Xrotation Yrotation
                            End Site
                            {
                                OFFSET -26.556021 0.000000 0.000000
                            }
                        }
                    }
                }
            }
        }
    }
    JOINT LeftUpLeg
    {
        OFFSET 17.704014 0.000000 0.000000
        CHANNELS 3 Zrotation Xrotation Yrotation
        JOINT LeftLeg
        {
            OFFSET -0.000000 -81.181816 0.000000
            CHANNELS 3 Zrotation Xrotation Yrotation
            JOINT LeftFoot
            {
                OFFSET -0.000000 -62.821102 0.000000
                CHANNELS 3 Zrotation Xrotation Yrotation
                JOINT LeftToeBase
                {
                    OFFSET -0.000000 -11.507608 26.556021
                    CHANNELS 3 Zrotation Xrotation Yrotation
                    End Site
                    {
                        OFFSET -0.000000 0.000000 7.081605
                    }
                }
            }
        }
    }
    JOINT RightUpLeg
    {
        OFFSET -17.704014 0.000000 0.000000
        CHANNELS 3 Zrotation Xrotation Yrotation
        JOINT RightLeg
        {
            OFFSET -0.000000 -81.181816 0.000000
            CHANNELS 3 Zrotation Xrotation Yrotation
            JOINT RightFoot
            {
                OFFSET -0.000000 -62.821102 0.000000
                CHANNELS 3 Zrotation Xrotation Yrotation
                JOINT RightToeBase
                {
                    OFFSET -0.000000 -11.507608 26.556021
                    CHANNELS 3 Zrotation Xrotation Yrotation
                    End Site
                    {
                        OFFSET -0.000000 0.000000 7.081605
                    }
                }
            }
        }
    }
}
MOTION
Frames:    13
Frame Time:    0.008333
15.286734    150.419220    -41.537498    -1.294368    0.723056    -43.616039    1.910715    -0.923351    -1.525924    1.311053    2.839032    -0.547493    15.262272    -2.272554    12.099001    -8.068877    10.502161    9.603909    12.182630    0.054047    -19.342909    -11.014093    -16.565186    -41.333565    7.105431    -39.289036    -27.630516    -25.322819    -28.772549    -46.051414    -7.668091    3.555307    -3.001460    35.491474    6.555312    76.811768    7.097097    -2.644067    106.200089    3.563619    -11.411225    20.478613    29.539261    -18.330086    30.437880    -17.214144    21.594173    12.180335    2.714624    4.569228    48.398781    0.000000    0.000000    0.000000    -11.247698    -9.302646    -7.953824    8.985914    45.983383    -4.791800    2.936809    -29.881048    -13.052891    0.000000    0.000000    0.000000    
15.359092    150.437805    -41.529991    -1.292405    0.740788    -43.678619    1.917284    -0.923147    -1.515032    1.304739    2.839147    -0.543715    15.265882    -2.270021    12.106755    -8.070012    10.478410    9.609951    12.186911    0.035092    -19.334421    -11.001395    -16.569239    -41.314140    7.134616    -39.325420    -27.626312    -25.309940    -28.819805    -46.021271    -7.668519    3.530044    -2.979027    35.482620    6.575143    76.827347    7.087536    -2.688815    106.216339    3.558551    -11.447365    20.449747    29.545710    -18.327751    30.396482    -17.237541    21.585386    12.239661    2.695865    4.534015    48.437721    0.000000    0.000000    0.000000    -11.266018    -9.325751    -7.928345    8.991794    45.925163    -4.784539    2.970425    -29.843187    -13.007291    0.000000    0.000000    0.000000    
15.426749    150.453598    -41.533764    -1.295343    0.761039    -43.732712    1.931642    -0.922806    -1.512231    1.284029    2.839975    -0.542267    15.286413    -2.255696    12.118128    -8.090364    10.447490    9.616987    12.209805    0.021848    -19.315222    -11.007769    -16.602430    -41.315395    7.142244    -39.334679    -27.616341    -25.285927    -28.839745    -46.016445    -7.665029    3.519889    -2.962742    35.490089    6.583011    76.859566    7.066505    -2.713496    106.214546    3.538873    -11.447384    20.443142    29.561420    -18.327023    30.341887    -17.270395    21.567007    12.298396    2.675386    4.511701    48.487011    0.000000    0.000000    0.000000    -11.271283    -9.349048    -7.896307    8.998016    45.874527    -4.779930    2.962912    -29.799761    -12.973176    0.000000    0.000000    0.000000    
15.489532    150.467300    -41.536659    -1.300060    0.768501    -43.791027    1.918725    -0.906656    -1.502245    1.299244    2.828316    -0.539042    15.272549    -2.255848    12.122799    -8.080456    10.441870    9.624331    12.216042    0.016232    -19.310816    -11.009558    -16.628366    -41.306957    7.150472    -39.344471    -27.615812    -25.272755    -28.854198    -46.016899    -7.675808    3.506361    -2.949823    35.508385    6.591656    76.878212    7.054655    -2.710420    106.217697    3.514241    -11.433486    20.449600    29.568645    -18.313068    30.295986    -17.294828    21.553698    12.319440    2.654156    4.485169    48.548588    0.000000    0.000000    0.000000    -11.283365    -9.359867    -7.857854    9.008377    45.818424    -4.773392    2.983810    -29.782866    -12.956324    0.000000    0.000000    0.000000    
15.556422    150.478073    -41.546162    -1.305172    0.778070    -43.846962    1.891524    -0.878530    -1.492147    1.361310    2.793892    -0.536543    15.226537    -2.198699    12.111244    -8.096509    10.373029    9.622160    12.176600    0.010102    -19.312634    -11.000413    -16.654640    -41.296894    7.160849    -39.323441    -27.597361    -25.277367    -28.822433    -46.038223    -7.726119    3.524253    -2.939971    35.496796    6.595627    76.914207    7.040964    -2.751677    106.225822    3.500638    -11.459428    20.454952    29.580132    -18.311338    30.258389    -17.316351    21.552538    12.384706    2.636183    4.465106    48.575058    0.000000    0.000000    0.000000    -11.292156    -9.375615    -7.807141    9.027295    45.766544    -4.794583    2.987078    -29.754086    -12.914626    0.000000    0.000000    0.000000    
15.615845    150.485962    -41.554485    -1.321697    0.782452    -43.902424    1.924640    -0.857164    -1.481876    1.296933    2.797628    -0.531634    15.262357    -2.213106    12.124074    -8.100710    10.373243    9.627233    12.212202    -0.013118    -19.304691    -10.995288    -16.669506    -41.288029    7.169119    -39.318718    -27.604055    -25.279232    -28.812523    -46.045025    -7.680583    3.512072    -2.941898    35.491764    6.604252    76.938423    7.038929    -2.744549    106.227661    3.492173    -11.451293    20.460943    29.598951    -18.290163    30.212938    -17.349913    21.540401    12.411783    2.599104    4.425639    48.648666    0.000000    0.000000    0.000000    -11.292124    -9.375340    -7.750970    9.044857    45.709743    -4.808568    2.980746    -29.741034    -12.894878    0.000000    0.000000    0.000000    
15.681765    150.491470    -41.561253    -1.327193    0.792906    -43.960136    1.934362    -0.843667    -1.482805    1.293969    2.784979    -0.531600    15.253303    -2.206784    12.137212    -8.112074    10.378178    9.643149    12.191569    -0.027604    -19.281902    -10.984478    -16.687763    -41.284988    7.182992    -39.275700    -27.591452    -25.276392    -28.762398    -46.046104    -7.700344    3.510820    -2.920493    35.498169    6.611220    76.954758    7.038265    -2.736096    106.228912    3.496402    -11.441828    20.450109    29.619713    -18.285864    30.183767    -17.386587    21.546755    12.479052    2.579910    4.389564    48.675087    0.000000    0.000000    0.000000    -11.298710    -9.401281    -7.707498    9.044563    45.679462    -4.792940    2.996340    -29.715223    -12.866294    0.000000    0.000000    0.000000    
15.742709    150.497574    -41.566879    -1.338997    0.802841    -44.010326    1.950570    -0.828090    -1.481529    1.285951    2.772076    -0.530854    15.232854    -2.213556    12.148057    -8.094399    10.398752    9.659464    12.181196    -0.032238    -19.276730    -10.955484    -16.677731    -41.269421    7.211032    -39.287258    -27.588800    -25.277342    -28.769159    -46.046200    -7.712723    3.522713    -2.915946    35.523724    6.606750    76.974182    7.056740    -2.684842    106.225067    3.508283    -11.412569    20.477911    29.640394    -18.278181    30.135439    -17.417452    21.551016    12.511577    2.545405    4.340907    48.728580    0.000000    0.000000    0.000000    -11.297114    -9.419566    -7.688481    9.027514    45.663792    -4.778210    2.971903    -29.698225    -12.832566    0.000000    0.000000    0.000000    
15.807007    150.499969    -41.572483    -1.334992    0.813637    -44.060207    1.959127    -0.831929    -1.481118    1.276170    2.766698    -0.530449    15.193959    -2.228629    12.146769    -8.057499    10.428177    9.666737    12.169009    -0.035383    -19.278179    -10.931678    -16.675926    -41.249283    7.246089    -39.282944    -27.578838    -25.298765    -28.747202    -46.053066    -7.732346    3.514352    -2.906982    35.554878    6.618353    76.978485    7.086071    -2.624016    106.222458    3.507732    -11.391685    20.461363    29.650381    -18.285780    30.088978    -17.447205    21.554684    12.538633    2.521338    4.306474    48.797268    0.000000    0.000000    0.000000    -11.318084    -9.457607    -7.633999    9.075502    45.651417    -4.804341    2.956278    -29.674282    -12.820683    0.000000    0.000000    0.000000    
15.873825    150.502121    -41.576431    -1.314828    0.821243    -44.114731    1.957703    -0.821786    -1.476899    1.257235    2.727098    -0.528055    15.167406    -2.248572    12.141682    -8.028915    10.466232    9.667464    12.168019    -0.041701    -19.270140    -10.943092    -16.694283    -41.246998    7.235693    -39.265911    -27.593624    -25.295023    -28.732847    -46.044270    -7.739505    3.515780    -2.918751    35.571106    6.646198    76.993141    7.123608    -2.562933    106.228363    3.513579    -11.381812    20.450026    29.647995    -18.297480    30.040689    -17.482010    21.554934    12.560191    2.483592    4.272367    48.880947    0.000000    0.000000    0.000000    -11.352564    -9.510391    -7.600296    9.092570    45.647243    -4.802062    2.955096    -29.653934    -12.801924    0.000000    0.000000    0.000000    
15.941121    150.497955    -41.584339    -1.290885    0.834458    -44.170094    1.950220    -0.830345    -1.477141    1.256878    2.704093    -0.527967    15.120869    -2.266481    12.148964    -7.989733    10.499440    9.684989    12.155431    -0.045573    -19.260811    -10.935628    -16.703384    -41.229191    7.224750    -39.250324    -27.608568    -25.292727    -28.715733    -46.052048    -7.764760    3.513453    -2.908442    35.582687    6.664873    76.993141    7.153944    -2.508126    106.238060    3.517349    -11.369094    20.446621    29.652832    -18.321312    29.985189    -17.523380    21.560684    12.602259    2.465351    4.239357    48.961308    0.000000    0.000000    0.000000    -11.390471    -9.574631    -7.544300    9.156555    45.657013    -4.852998    3.066097    -29.706366    -12.820590    0.000000    0.000000    0.000000    
16.015802    150.492676    -41.589108    -1.251675    0.841061    -44.229145    1.942322    -0.844138    -1.468358    1.228949    2.676081    -0.524121    15.136080    -2.244818    12.155952    -8.026299    10.493689    9.690351    12.162144    -0.038395    -19.262794    -10.938235    -16.732361    -41.227837    7.212542    -39.253422    -27.607124    -25.319492    -28.707373    -46.069054    -7.769721    3.508857    -2.899570    35.572056    6.686625    76.982742    7.179115    -2.458237    106.260109    3.458212    -11.368497    20.415787    29.639174    -18.350134    29.933809    -17.563263    21.565035    12.629065    2.455346    4.216053    49.050056    0.000000    0.000000    0.000000    -11.455663    -9.658985    -7.503847    9.211310    45.674034    -4.868807    2.983914    -29.623646    -12.759160    0.000000    0.000000    0.000000    
16.088346    150.483734    -41.591228    -1.220242    0.841860    -44.287273    1.936845    -0.842033    -1.464507    1.205093    2.639988    -0.521816    15.151663    -2.237236    12.166243    -8.072678    10.501523    9.697698    12.155972    -0.041140    -19.256773    -10.954057    -16.771919    -41.226158    7.183625    -39.208450    -27.618229    -25.321856    -28.659876    -46.073982    -7.772425    3.526414    -2.905250    35.533184    6.706463    76.994766    7.201501    -2.417175    106.281235    3.439573    -11.364375    20.430443    29.630865    -18.370291    29.864202    -17.618032    21.575394    12.679868    2.434306    4.168508    49.134979    0.000000    0.000000    0.000000    -11.516583    -9.720779    -7.456566    9.273076    45.698505    -4.877243    2.943638    -29.632238    -12.766953    0.000000    0.000000    0.000000    
